<svg width="134" height="146" viewBox="0 0 134 146" fill="none" xmlns="http://www.w3.org/2000/svg">
<g clip-path="url(#clip0_1762_85)">
<path d="M0.00066793 0V61.1912C0.00066793 99.3015 34.4093 135.265 66.6673 146C98.9254 135.265 133.334 99.3015 133.334 61.1912V0H0.00066793Z" fill="#FFE94D"/>
<rect x="83.6338" y="35.9014" width="10.0906" height="10.0906" transform="rotate(90 83.6338 35.9014)" fill="#348BEF"/>
<rect x="26.5918" y="35.6182" width="10.0906" height="10.0906" transform="rotate(90 26.5918 35.6182)" fill="#348BEF"/>
<rect x="54.9746" y="85.1533" width="10.0906" height="10.0906" transform="rotate(90 54.9746 85.1533)" fill="#348BEF"/>
<path d="M53.5801 24.252L46.8545 35.9014H60.3408V45.9912H46.8525L53.5801 57.6426L44.9453 62.6279L38.1846 50.917L31.4248 62.626L22.79 57.6416L32.4277 40.9473L22.79 24.2529L31.4238 19.2686L38.1836 30.9766L44.9453 19.2666L53.5801 24.252Z" fill="#EF3F34"/>
<path d="M110.754 24.251L104.027 35.9014H117.515V45.9912H104.028L110.754 57.6406L102.119 62.626L95.3584 50.916L88.5986 62.626L79.9639 57.6406L89.6016 40.9453L79.9639 24.251L88.5986 19.2656L95.3584 30.9746L102.119 19.2656L110.754 24.251Z" fill="#EF3F34"/>
<path d="M82.0947 73.625L75.3682 85.2764H88.8555V95.3672H75.3682L82.0938 107.017L73.46 112.002L66.6982 100.291L59.9395 112L51.3047 107.015L60.9424 90.3203L51.3047 73.627L59.9385 68.6416L66.6982 80.3506L73.46 68.6396L82.0947 73.625Z" fill="#EF3F34"/>
</g>
<defs>
<clipPath id="clip0_1762_85">
<rect width="133.333" height="146" fill="white"/>
</clipPath>
</defs>
</svg>
