<svg width="292" height="158" viewBox="0 0 292 158" fill="none" xmlns="http://www.w3.org/2000/svg">
<path d="M270.17 127.989C270.17 117.429 267.482 104.373 264.986 98.3246C264.122 96.2126 263.546 95.7326 262.874 95.7326C261.697 95.7326 259.921 97.4412 257.467 104.324C257.211 105.044 256.438 105.449 255.705 105.232V105.232C254.986 105.018 254.555 104.28 254.735 103.552C257.51 92.3179 261.488 87.8606 265.466 87.8606C268.442 87.8606 270.938 89.6846 273.05 95.5406C276.122 104.085 277.754 114.741 277.754 124.821C277.754 126.98 277.57 129.048 277.383 130.845C277.376 130.909 277.426 130.965 277.491 130.965V130.965C277.534 130.965 277.574 130.938 277.591 130.899C284.19 115.766 285.434 105.222 285.434 95.0606C285.434 93.4442 285.331 91.8792 285.125 90.4034C284.987 89.4099 285.283 88.3545 286.215 87.9825C287.042 87.6523 288.019 87.4766 288.89 87.4766C289.098 87.4766 289.452 87.4947 289.848 87.5387C290.828 87.6478 291.532 88.4331 291.653 89.4119C291.787 90.4887 291.866 91.7337 291.866 92.6606C291.866 103.029 289.562 114.933 283.418 127.989C278.618 138.165 272.858 145.557 265.754 151.029C258.938 156.309 252.218 157.845 246.842 157.845C242.618 157.845 240.122 155.733 240.122 153.237C240.122 150.837 241.85 149.013 244.73 149.013C247.898 149.013 249.05 151.317 254.042 151.317C262.49 151.317 270.17 141.909 270.17 127.989Z" fill="#162128"/>
<path d="M211.728 111.186C211.728 97.6497 221.136 87.7617 233.04 87.7617C243.12 87.7617 250.224 94.7697 250.224 104.178C250.224 104.194 250.224 104.211 250.224 104.227C250.223 105.657 249.002 106.674 247.572 106.674H223.446C222.04 106.674 220.848 107.661 220.848 109.067C220.848 109.101 220.848 109.135 220.848 109.17C220.848 118.194 226.128 124.53 233.712 124.53C239.324 124.53 242.773 122.767 246.402 118.218C247.002 117.466 248.073 117.257 248.883 117.778V117.778C249.608 118.243 249.91 119.157 249.565 119.947C246.201 127.652 240.442 132.882 232.368 132.882C220.08 132.882 211.728 122.802 211.728 111.186ZM221.754 101.657C221.677 101.965 221.914 102.258 222.232 102.258H239.636C239.915 102.258 240.141 102.028 240.128 101.749C239.852 95.6637 236.271 92.7537 231.6 92.7537C226.7 92.7537 223.046 96.4931 221.754 101.657Z" fill="#162128"/>
<path d="M203.83 102.452V113.396C203.83 116.372 203.83 119.54 204.118 122.516C204.381 126.106 204.883 127.54 207.665 128.857C208.174 129.098 208.501 129.619 208.452 130.179V130.179C208.391 130.88 207.777 131.4 207.076 131.355C203.921 131.156 201.367 131.156 199.414 131.156C197.217 131.156 195.242 131.156 192.312 131.353C191.612 131.4 190.991 130.898 190.9 130.202V130.202C190.825 129.628 191.141 129.081 191.646 128.798C194.018 127.467 194.355 125.894 194.614 122.612C194.806 119.636 194.902 116.372 194.902 113.396V103.124C194.902 98.228 192.118 95.156 187.606 95.156C181.846 95.156 178.198 99.38 178.198 104.66V113.396C178.198 116.372 178.294 119.636 178.486 122.612C178.746 125.895 179.16 127.468 181.55 128.799C182.056 129.081 182.371 129.628 182.296 130.202V130.202C182.206 130.898 181.585 131.4 180.885 131.353C177.935 131.156 175.885 131.156 173.686 131.156C171.732 131.156 169.252 131.156 166.113 131.356C165.416 131.4 164.806 130.883 164.745 130.187V130.187C164.696 129.624 165.029 129.102 165.542 128.862C168.221 127.607 168.721 126.091 168.982 122.516C169.27 119.54 169.27 116.372 169.27 113.396V110.42C169.27 107.54 169.174 104.756 168.982 101.78C168.725 98.3543 168.086 97.3735 165.362 96.7246C164.739 96.5763 164.278 96.0353 164.278 95.3952V95.3952C164.278 94.8462 164.617 94.3549 165.127 94.1515C169.356 92.4643 172.488 90.7303 175.82 88.2367C176.288 87.886 176.9 87.784 177.453 87.9762V87.9762C178.223 88.2443 178.7 89.0146 178.608 89.8255C178.337 92.2217 178.188 94.2249 178.106 96.2226C178.104 96.2746 178.132 96.3229 178.179 96.3462V96.3462C178.243 96.3783 178.321 96.3531 178.355 96.2898C180.954 91.4514 185.251 87.86 190.966 87.86C195.862 87.86 199.606 89.972 201.814 93.716C203.158 96.02 203.83 98.612 203.83 102.452Z" fill="#162128"/>
<path d="M156.857 98.516C153.689 98.516 152.825 96.212 150.137 96.212C146.777 96.212 143.417 100.052 143.417 109.46V113.492C143.417 116.372 143.417 119.636 143.609 122.612C143.869 126.079 144.442 127.668 147.166 128.863C147.713 129.103 148.066 129.66 147.988 130.253V130.253C147.901 130.92 147.306 131.401 146.634 131.357C143.562 131.156 141.12 131.156 138.905 131.156C136.696 131.156 134.412 131.156 131.387 131.356C130.704 131.401 130.1 130.912 130.011 130.234V130.234C129.935 129.648 130.273 129.093 130.807 128.841C133.463 127.591 134.028 126.081 134.201 122.612C134.393 119.636 134.489 116.372 134.489 113.492V110.516C134.489 107.636 134.489 104.756 134.201 101.876C133.86 98.4696 133.142 97.4051 130.572 96.739C129.954 96.5788 129.497 96.0389 129.497 95.4003V95.4003C129.497 94.8482 129.838 94.3542 130.351 94.1498C134.59 92.4597 137.599 90.7836 141.164 88.1952C141.612 87.8696 142.195 87.7874 142.712 87.9846V87.9846C143.408 88.2498 143.832 88.9549 143.756 89.6958C143.468 92.4999 143.323 95.4871 143.321 97.9793C143.321 98.0108 143.347 98.036 143.378 98.036V98.036C143.402 98.036 143.423 98.0211 143.431 97.9992C146.119 91.1124 150.049 87.86 154.553 87.86C158.777 87.86 161.369 90.356 161.369 93.62C161.369 96.884 159.353 98.516 156.857 98.516Z" fill="#162128"/>
<path d="M111.468 112.242C111.422 112.239 111.279 112.279 111.26 112.32C103.154 129.161 98.9395 132.307 93.3904 132.307C89.0704 132.307 86.4784 129.043 86.4784 125.299C86.4784 122.995 87.0544 120.403 88.8784 115.699L94.6384 101.011C95.4064 98.9954 95.7904 97.3634 95.7904 96.4994C95.7904 95.5394 95.3104 94.8674 94.5424 94.8674C93.205 94.8674 91.702 96.1094 87.957 100.67C87.4577 101.278 86.5585 101.374 85.9496 100.875V100.875C85.3799 100.409 85.2628 99.5811 85.6848 98.978C91.4846 90.6888 95.0889 87.8594 98.9584 87.8594C101.838 87.8594 104.238 90.2594 104.238 94.0034C104.238 96.2114 103.758 98.1314 101.838 103.219L96.0784 118.579C95.4064 120.403 95.1184 121.555 95.1184 122.611C95.1184 123.955 95.8864 124.819 97.3264 124.819C100.974 124.819 107.598 118.195 116.718 92.8514L117.681 90.1686C117.927 89.4845 118.405 88.8776 119.11 88.6984C119.63 88.5661 120.116 88.5314 120.462 88.5314C122.11 88.5314 123.886 89.1086 125.162 90.5777C125.73 91.2324 125.76 92.1658 125.457 92.9781C123.147 99.1755 122.366 101.385 120.654 107.059C117.774 116.755 117.294 119.539 117.006 121.363C116.814 122.611 116.718 123.379 116.718 123.859C116.718 124.723 117.102 125.107 117.774 125.107C118.764 125.107 120.427 124.265 124.502 119.342C124.987 118.756 125.825 118.625 126.411 119.108V119.108C126.961 119.561 127.092 120.373 126.703 120.969C121.27 129.294 117.059 132.307 113.646 132.307C110.478 132.307 108.558 130.099 108.558 126.451C108.558 123.77 109.036 120.323 111.517 112.3C111.525 112.272 111.496 112.244 111.468 112.242V112.242Z" fill="#162128"/>
<path d="M36.8955 110.419C36.8955 98.0354 46.5915 87.8594 59.0715 87.8594C72.0315 87.8594 81.3435 97.6514 81.3435 110.419C81.3435 122.899 71.8395 132.979 59.5515 132.979C46.3035 132.979 36.8955 123.091 36.8955 110.419ZM58.7835 92.8514C52.1595 92.8514 46.9755 98.4194 46.9755 109.555C46.9755 121.267 52.0635 127.891 59.7435 127.891C66.4635 127.891 71.1675 121.939 71.1675 110.995C71.1675 99.8594 65.5995 92.8514 58.7835 92.8514Z" fill="#162128"/>
<path d="M30.7578 84.8834V100.627C30.7578 104.947 30.7578 110.131 30.9498 114.451C30.8538 126.163 23.7498 132.883 14.0538 132.883C8.12725 132.883 4.27561 130.962 1.19249 127.601C0.548056 126.899 0.568191 125.83 1.17601 125.096V125.096C1.87708 124.249 3.12003 124.13 4.03839 124.734C6.32798 126.242 8.70446 127.123 11.2698 127.123C15.3018 127.123 18.0858 125.395 19.5258 121.939C20.5818 119.539 20.8698 115.987 20.8698 111.187V84.8834C20.8698 81.5234 20.8698 77.5874 20.5818 74.3234C20.3224 70.5195 19.8295 68.4284 16.9296 66.9283C16.3238 66.6149 15.9299 65.982 16.0053 65.3041V65.3041C16.095 64.4965 16.8058 63.9041 17.6172 63.95C21.1071 64.1474 23.7457 64.1474 25.8618 64.1474C27.9762 64.1474 30.6122 64.1474 34.0981 63.9504C34.9141 63.9043 35.629 64.5001 35.7192 65.3125V65.3125C35.7942 65.9872 35.4081 66.6195 34.8049 66.9311C31.8185 68.4741 31.3929 70.418 31.0458 74.3234C30.7578 77.5874 30.7578 81.5234 30.7578 84.8834Z" fill="#162128"/>
<path fill-rule="evenodd" clip-rule="evenodd" d="M146.353 27.2575C138.915 27.2575 132.886 21.2283 132.886 13.7908C132.886 6.35343 138.915 0.324219 146.353 0.324219C153.79 0.324219 159.819 6.35343 159.819 13.7908C159.819 21.2283 153.79 27.2575 146.353 27.2575ZM182.09 44.7334C181.012 64.5331 166.09 80.47 146.353 80.47C126.617 80.47 111.691 64.5331 110.613 44.7334C109.904 31.7209 110.127 26.7339 110.363 24.8439C110.454 24.1106 111.042 23.7119 111.781 23.7256C130.713 24.0773 141.089 33.0618 146.096 50.9988C146.167 51.2539 146.54 51.2539 146.611 50.9988C151.618 33.0618 161.989 24.0773 180.922 23.7256C181.661 23.7119 182.248 24.1106 182.34 24.8439C182.576 26.7339 182.799 31.7209 182.09 44.7334Z" fill="#162128"/>
</svg>
