<svg width="2215" height="114" viewBox="0 0 2215 114" fill="none" xmlns="http://www.w3.org/2000/svg">
<path d="M2135.67 111.234V2.02832H2214.3V21.6853H2159.39V46.0225H2208.84V65.2114H2159.39V91.5767H2214.3V111.234H2135.67Z" fill="black"/>
<path d="M2054.35 111.234V2.02832H2078.07V91.5767H2125.49V111.234H2054.35Z" fill="black"/>
<path d="M1973.03 111.234V2.02832H1996.75V91.5767H2044.17V111.234H1973.03Z" fill="black"/>
<path d="M1937.23 111.234V2.02832H1960.94V111.234H1937.23Z" fill="black"/>
<path d="M1861.44 111.234L1824.94 2.02832H1850.68L1876.89 87.2085L1902.94 2.02832H1928.68L1892.18 111.234H1861.44Z" fill="black"/>
<path d="M1723.55 111.234V2.02832H1749.29L1793.91 75.3519V2.02832H1816.37V111.234H1791.41L1746.01 36.662V111.234H1723.55Z" fill="black"/>
<path d="M1687.74 111.234V2.02832H1711.45V111.234H1687.74Z" fill="black"/>
<path d="M1620.01 111.234V21.6853H1586.62V2.02832H1677.11V21.6853H1643.72V111.234H1620.01Z" fill="black"/>
<path d="M1491.28 111.234V2.02832H1544.17C1566.94 2.02832 1580.36 16.381 1580.36 35.882C1580.36 50.7027 1572.72 62.5593 1559.14 67.3956L1580.21 111.234H1555.09L1535.74 69.8917H1514.99V111.234H1491.28ZM1514.99 50.8587H1541.2C1549.47 50.8587 1556.49 45.8665 1556.49 35.882C1556.49 25.8975 1549.47 21.0613 1541.2 21.0613H1514.99V50.8587Z" fill="black"/>
<path d="M1375.49 111.234L1414.33 2.02832H1443.66L1482.82 111.234H1457.86L1449.9 87.6766H1407.94L1399.98 111.234H1375.49ZM1414.02 69.2676H1443.82L1429 24.9615L1414.02 69.2676Z" fill="black"/>
<path d="M1253.53 111.234V2.02832H1285.52L1310.79 80.1882L1335.28 2.02832H1367.11V111.234H1345.42V34.7899L1320.62 111.234H1300.96L1275.38 34.4779V111.234H1253.53Z" fill="black"/>
<path d="M1133.1 111.234V2.02832H1211.73V21.6853H1156.81V46.0225H1206.27V65.2114H1156.81V91.5767H1211.73V111.234H1133.1Z" fill="black"/>
<path d="M1025.12 111.234V2.02832H1068.49C1098.6 2.02832 1121.06 22.9334 1121.06 56.631C1121.06 90.4847 1098.6 111.234 1068.49 111.234H1025.12ZM1048.83 91.5767H1066.62C1082.22 91.5767 1096.41 81.4363 1096.41 56.631C1096.41 31.6698 1082.22 21.6853 1066.62 21.6853H1048.83V91.5767Z" fill="black"/>
<path d="M932.74 111.234V21.6853H899.354V2.02832H989.839V21.6853H956.453V111.234H932.74Z" fill="black"/>
<path d="M836.033 111.234V21.6853H802.647V2.02832H893.132V21.6853H859.746V111.234H836.033Z" fill="black"/>
<path d="M748.051 113.262C716.382 113.262 694.853 91.2645 694.853 56.6308C694.853 21.6851 716.382 0 748.051 0C779.721 0 801.25 21.6851 801.25 56.6308C801.25 91.2645 779.721 113.262 748.051 113.262ZM719.346 56.6308C719.346 79.5639 730.422 92.9806 748.051 92.9806C765.68 92.9806 776.601 79.5639 776.601 56.6308C776.601 33.3857 765.68 20.281 748.051 20.281C730.422 20.281 719.346 33.3857 719.346 56.6308Z" fill="black"/>
<path d="M638.362 113.262C609.032 113.262 586.567 91.2645 586.567 56.6308C586.567 21.8411 609.188 0 638.362 0C668.315 0 684.852 18.5649 686.568 41.6541H662.231C659.735 27.1453 650.375 20.281 638.362 20.281C621.825 20.281 611.217 34.3217 611.217 56.6308C611.217 78.7839 621.981 92.9806 638.362 92.9806C649.438 92.9806 660.515 86.5843 663.011 71.1395H687.66C683.292 99.3769 663.947 113.262 638.362 113.262Z" fill="black"/>
<path d="M533.946 113.262C505.085 113.262 486.832 98.2849 486.208 76.7558H510.077C511.793 87.9884 521.622 93.4486 534.102 93.4486C545.491 93.4486 554.851 89.3924 554.851 80.188C554.851 73.9477 550.171 70.6715 543.151 69.1114L523.026 64.4312C506.021 60.531 489.64 54.2907 489.64 32.4496C489.64 13.2607 507.425 0 533.478 0C558.908 0 575.132 13.1047 576.224 33.0736H552.355C551.107 24.4932 544.555 19.0329 532.698 19.0329C521.778 19.0329 513.977 23.8692 513.977 31.5136C513.977 38.3779 519.438 41.186 526.77 42.9021L549.079 47.7384C567.488 51.7946 579.345 61.155 579.345 79.0959C579.345 101.249 560 113.262 533.946 113.262Z" fill="black"/>
<path d="M352.932 111.234V2.02832H378.673L423.291 75.3519V2.02832H445.756V111.234H420.795L375.397 36.662V111.234H352.932Z" fill="black"/>
<path d="M237.136 111.234L275.982 2.02832H305.311L344.469 111.234H319.508L311.551 87.6766H269.585L261.629 111.234H237.136ZM275.67 69.2676H305.467L290.646 24.9615L275.67 69.2676Z" fill="black"/>
<path d="M142.875 111.234V2.02832H195.762C218.539 2.02832 231.955 16.381 231.955 35.882C231.955 50.7027 224.311 62.5593 210.738 67.3956L231.799 111.234H206.682L187.337 69.8917H166.588V111.234H142.875ZM166.588 50.8587H192.797C201.066 50.8587 208.086 45.8665 208.086 35.882C208.086 25.8975 201.066 21.0613 192.797 21.0613H166.588V50.8587Z" fill="black"/>
<path d="M107.066 111.234V2.02832H130.78V111.234H107.066Z" fill="black"/>
<path d="M0 111.234V2.02832H23.7132V53.0428L67.0833 2.02832H95.9447L55.2267 47.8946L98.7529 111.234H70.9835L39.782 65.3675L23.7132 83.3083V111.234H0Z" fill="black"/>
</svg>
